<svg width="57" height="57" viewBox="0 0 57 57" fill="none" xmlns="http://www.w3.org/2000/svg">
<g filter="url(#filter0_d_4066_79828)">
<path d="M6 10.5C6 6.08172 9.58172 2.5 14 2.5H43C47.4183 2.5 51 6.08172 51 10.5V39.5C51 43.9183 47.4183 47.5 43 47.5H14C9.58172 47.5 6 43.9183 6 39.5V10.5Z" fill="#079455"/>
</g>
<path d="M19.2188 24.5C19.2185 22.8706 19.6472 21.27 20.4617 19.8588C21.2762 18.4477 22.4478 17.2758 23.8588 16.4611C25.2697 15.6463 26.8703 15.2173 28.4997 15.2173C30.129 15.2172 31.7296 15.646 33.1406 16.4607C33.3343 16.5708 33.5637 16.5999 33.7787 16.5415C33.9938 16.4831 34.177 16.3421 34.2884 16.1491C34.3998 15.9562 34.4303 15.727 34.3734 15.5116C34.3164 15.2962 34.1766 15.112 33.9844 14.9993C31.8933 13.7921 29.4624 13.3085 27.0685 13.6236C24.6746 13.9387 22.4516 15.0349 20.7442 16.7422C19.0368 18.4495 17.9404 20.6725 17.6252 23.0663C17.3099 25.4602 17.7933 27.8912 19.0004 29.9823C20.2076 32.0734 22.071 33.7078 24.3016 34.632C26.5323 35.5562 29.0056 35.7185 31.3379 35.0938C33.6702 34.4691 35.7313 33.0923 37.2014 31.1769C38.6715 29.2615 39.4685 26.9145 39.4688 24.5C39.4688 24.2762 39.3799 24.0616 39.2216 23.9033C39.0634 23.7451 38.8488 23.6562 38.625 23.6562C38.4012 23.6562 38.1866 23.7451 38.0284 23.9033C37.8702 24.0616 37.7813 24.2762 37.7813 24.5C37.7813 26.9615 36.8034 29.3222 35.0629 31.0628C33.3223 32.8034 30.9616 33.7812 28.5 33.7812C26.0385 33.7812 23.6778 32.8034 21.9372 31.0628C20.1966 29.3222 19.2188 26.9615 19.2188 24.5Z" fill="white"/>
<path d="M40.9099 16.66C40.9884 16.5815 41.0506 16.4884 41.093 16.3859C41.1355 16.2834 41.1573 16.1735 41.1573 16.0626C41.1573 15.9516 41.1355 15.8418 41.093 15.7393C41.0506 15.6368 40.9884 15.5437 40.9099 15.4652C40.8315 15.3868 40.7383 15.3245 40.6358 15.2821C40.5333 15.2396 40.4235 15.2178 40.3125 15.2178C40.2016 15.2178 40.0917 15.2396 39.9892 15.2821C39.8867 15.3245 39.7936 15.3868 39.7152 15.4652L28.5 26.682L24.0349 22.2152C23.9565 22.1368 23.8633 22.0745 23.7608 22.0321C23.6583 21.9896 23.5485 21.9678 23.4375 21.9678C23.3266 21.9678 23.2167 21.9896 23.1142 22.0321C23.0117 22.0745 22.9186 22.1368 22.8402 22.2152C22.7617 22.2937 22.6995 22.3868 22.657 22.4893C22.6146 22.5918 22.5927 22.7016 22.5927 22.8126C22.5927 22.9235 22.6146 23.0334 22.657 23.1359C22.6995 23.2384 22.7617 23.3315 22.8402 23.41L27.9027 28.4725C27.981 28.551 28.0741 28.6134 28.1766 28.6559C28.2792 28.6985 28.389 28.7203 28.5 28.7203C28.611 28.7203 28.7209 28.6985 28.8234 28.6559C28.9259 28.6134 29.019 28.551 29.0974 28.4725L40.9099 16.66Z" fill="white"/>
<defs>
<filter id="filter0_d_4066_79828" x="0.5" y="0.5" width="56" height="56" filterUnits="userSpaceOnUse" color-interpolation-filters="sRGB">
<feFlood flood-opacity="0" result="BackgroundImageFix"/>
<feColorMatrix in="SourceAlpha" type="matrix" values="0 0 0 0 0 0 0 0 0 0 0 0 0 0 0 0 0 0 127 0" result="hardAlpha"/>
<feOffset dy="3.5"/>
<feGaussianBlur stdDeviation="2.75"/>
<feColorMatrix type="matrix" values="0 0 0 0 0 0 0 0 0 0 0 0 0 0 0 0 0 0 0.02 0"/>
<feBlend mode="normal" in2="BackgroundImageFix" result="effect1_dropShadow_4066_79828"/>
<feBlend mode="normal" in="SourceGraphic" in2="effect1_dropShadow_4066_79828" result="shape"/>
</filter>
</defs>
</svg>
