<svg width="21" height="20" viewBox="0 0 21 20" fill="none" xmlns="http://www.w3.org/2000/svg">
<g clip-path="url(#clip0_4539_7976)">
<path d="M19.8273 2.42549C19.9441 2.54265 20.0097 2.70132 20.0097 2.86674C20.0097 3.03216 19.9441 3.19084 19.8273 3.30799L18.5236 4.61299L16.0236 2.11299L17.3273 0.807992C17.4445 0.690822 17.6035 0.625 17.7692 0.625C17.9349 0.625 18.0939 0.690822 18.2111 0.807992L19.8273 2.42424V2.42549ZM17.6398 5.49549L15.1398 2.99549L6.62359 11.513C6.55479 11.5818 6.503 11.6657 6.47234 11.758L5.46609 14.7755C5.44784 14.8305 5.44525 14.8895 5.45861 14.9459C5.47196 15.0023 5.50074 15.0539 5.54172 15.0949C5.58271 15.1358 5.63428 15.1646 5.69068 15.178C5.74708 15.1913 5.80608 15.1887 5.86109 15.1705L8.87859 14.1642C8.9708 14.1339 9.05468 14.0826 9.12359 14.0142L17.6398 5.49674V5.49549Z" fill="#161616"/>
<path fill-rule="evenodd" clip-rule="evenodd" d="M1.69995 16.875C1.69995 17.3723 1.8975 17.8492 2.24913 18.2008C2.60076 18.5525 3.07767 18.75 3.57495 18.75H17.325C17.8222 18.75 18.2991 18.5525 18.6508 18.2008C19.0024 17.8492 19.2 17.3723 19.2 16.875V9.375C19.2 9.20924 19.1341 9.05027 19.0169 8.93306C18.8997 8.81585 18.7407 8.75 18.575 8.75C18.4092 8.75 18.2502 8.81585 18.133 8.93306C18.0158 9.05027 17.95 9.20924 17.95 9.375V16.875C17.95 17.0408 17.8841 17.1997 17.7669 17.3169C17.6497 17.4342 17.4907 17.5 17.325 17.5H3.57495C3.40919 17.5 3.25022 17.4342 3.13301 17.3169C3.0158 17.1997 2.94995 17.0408 2.94995 16.875V3.125C2.94995 2.95924 3.0158 2.80027 3.13301 2.68306C3.25022 2.56585 3.40919 2.5 3.57495 2.5H11.7C11.8657 2.5 12.0247 2.43415 12.1419 2.31694C12.2591 2.19973 12.325 2.04076 12.325 1.875C12.325 1.70924 12.2591 1.55027 12.1419 1.43306C12.0247 1.31585 11.8657 1.25 11.7 1.25H3.57495C3.07767 1.25 2.60076 1.44754 2.24913 1.79917C1.8975 2.15081 1.69995 2.62772 1.69995 3.125V16.875Z" fill="black"/>
</g>
<defs>
<clipPath id="clip0_4539_7976">
<rect width="20" height="20" fill="white" transform="translate(0.449951)"/>
</clipPath>
</defs>
</svg>
