<svg width="57" height="57" viewBox="0 0 57 57" fill="none" xmlns="http://www.w3.org/2000/svg">
<g filter="url(#filter0_d_4066_79762)">
<path d="M6 10.5C6 6.08172 9.58172 2.5 14 2.5H43C47.4183 2.5 51 6.08172 51 10.5V39.5C51 43.9183 47.4183 47.5 43 47.5H14C9.58172 47.5 6 43.9183 6 39.5V10.5Z" fill="#9DA4AE"/>
</g>
<path d="M23.4037 17.75C23.2773 17.7502 23.1525 17.7788 23.0386 17.8337C22.9247 17.8886 22.8245 17.9684 22.7456 18.0673L17.5987 24.5H25.125C25.3488 24.5 25.5634 24.5889 25.7216 24.7471C25.8799 24.9054 25.9687 25.12 25.9687 25.3438C25.9687 26.0151 26.2354 26.6589 26.7101 27.1336C27.1848 27.6083 27.8287 27.875 28.5 27.875C29.1713 27.875 29.8152 27.6083 30.2899 27.1336C30.7646 26.6589 31.0312 26.0151 31.0312 25.3438C31.0312 25.12 31.1201 24.9054 31.2784 24.7471C31.4366 24.5889 31.6512 24.5 31.875 24.5H39.4012L34.2544 18.0673C34.1755 17.9684 34.0753 17.8886 33.9614 17.8337C33.8475 17.7788 33.7227 17.7502 33.5963 17.75H23.4037ZM21.4294 17.0126C21.6663 16.7164 21.9667 16.4773 22.3084 16.3128C22.6502 16.1484 23.0245 16.0628 23.4037 16.0625H33.5963C33.9755 16.0628 34.3498 16.1484 34.6916 16.3128C35.0333 16.4773 35.3337 16.7164 35.5706 17.0126L41.8144 24.8172C41.8848 24.9052 41.9369 25.0063 41.9677 25.1147C41.9984 25.2231 42.0071 25.3366 41.9932 25.4484L41.3351 30.7201C41.2586 31.3325 40.961 31.8958 40.4983 32.3042C40.0355 32.7125 39.4396 32.9377 38.8224 32.9375H18.1776C17.5604 32.9377 16.9645 32.7125 16.5017 32.3042C16.039 31.8958 15.7414 31.3325 15.6649 30.7201L15.0067 25.4484C14.9929 25.3366 15.0016 25.2231 15.0323 25.1147C15.0631 25.0063 15.1152 24.9052 15.1856 24.8172L21.4294 17.0126Z" fill="white"/>
<defs>
<filter id="filter0_d_4066_79762" x="0.5" y="0.5" width="56" height="56" filterUnits="userSpaceOnUse" color-interpolation-filters="sRGB">
<feFlood flood-opacity="0" result="BackgroundImageFix"/>
<feColorMatrix in="SourceAlpha" type="matrix" values="0 0 0 0 0 0 0 0 0 0 0 0 0 0 0 0 0 0 127 0" result="hardAlpha"/>
<feOffset dy="3.5"/>
<feGaussianBlur stdDeviation="2.75"/>
<feColorMatrix type="matrix" values="0 0 0 0 0 0 0 0 0 0 0 0 0 0 0 0 0 0 0.02 0"/>
<feBlend mode="normal" in2="BackgroundImageFix" result="effect1_dropShadow_4066_79762"/>
<feBlend mode="normal" in="SourceGraphic" in2="effect1_dropShadow_4066_79762" result="shape"/>
</filter>
</defs>
</svg>
