<svg width="21" height="21" viewBox="0 0 21 21" fill="none" xmlns="http://www.w3.org/2000/svg">
<g clip-path="url(#clip0_4409_3395)">
<path d="M10.8227 20.6778C11.4975 20.6778 12.1446 20.4097 12.6218 19.9326C13.0989 19.4554 13.367 18.8083 13.367 18.1335H8.27836C8.27836 18.8083 8.54642 19.4554 9.02357 19.9326C9.50072 20.4097 10.1479 20.6778 10.8227 20.6778ZM10.8227 2.76337L9.80876 2.96818C8.65869 3.20251 7.6249 3.82702 6.88237 4.73599C6.13984 5.64497 5.73418 6.78258 5.73406 7.95629C5.73406 8.7552 5.56359 10.7512 5.15014 12.7167C4.9466 13.6924 4.67181 14.7089 4.3067 15.5892H17.3386C16.9735 14.7089 16.7 13.6937 16.4952 12.7167C16.0817 10.7512 15.9113 8.7552 15.9113 7.95629C15.9109 6.7828 15.5051 5.64549 14.7626 4.73677C14.0201 3.82806 12.9864 3.20374 11.8366 2.96945L10.8227 2.76209V2.76337ZM18.7355 15.5892C19.0191 16.1579 19.3474 16.6082 19.7277 16.8614H1.9176C2.29798 16.6082 2.62619 16.1579 2.90988 15.5892C4.05482 13.2993 4.46191 9.07578 4.46191 7.95629C4.46191 4.87768 6.65001 2.30794 9.55688 1.72147C9.53912 1.54459 9.55864 1.36594 9.61416 1.19706C9.66969 1.02818 9.76 0.872808 9.87927 0.740973C9.99853 0.609138 10.1441 0.503763 10.3066 0.431645C10.4691 0.359526 10.6449 0.322266 10.8227 0.322266C11.0004 0.322266 11.1762 0.359526 11.3387 0.431645C11.5012 0.503763 11.6468 0.609138 11.7661 0.740973C11.8853 0.872808 11.9756 1.02818 12.0312 1.19706C12.0867 1.36594 12.1062 1.54459 12.0885 1.72147C13.5263 2.01394 14.819 2.79436 15.7475 3.93057C16.676 5.06678 17.1832 6.48896 17.1834 7.95629C17.1834 9.07578 17.5905 13.2993 18.7355 15.5892Z" fill="#6C737F"/>
</g>
<defs>
<clipPath id="clip0_4409_3395">
<rect width="20.3544" height="20.3544" fill="white" transform="translate(0.645508 0.323242)"/>
</clipPath>
</defs>
</svg>
