<svg width="57" height="57" viewBox="0 0 57 57" fill="none" xmlns="http://www.w3.org/2000/svg">
<g filter="url(#filter0_d_4066_22964)">
<path d="M6 10.5C6 6.08172 9.58172 2.5 14 2.5H43C47.4183 2.5 51 6.08172 51 10.5V39.5C51 43.9183 47.4183 47.5 43 47.5H14C9.58172 47.5 6 43.9183 6 39.5V10.5Z" fill="#6D428F"/>
</g>
<path fill-rule="evenodd" clip-rule="evenodd" d="M39.9126 11.1264C40.0348 11.202 40.1357 11.3075 40.2057 11.433C40.2757 11.5585 40.3124 11.6998 40.3125 11.8436V37.1561C40.3125 37.3798 40.2236 37.5944 40.0654 37.7527C39.9071 37.9109 39.6925 37.9998 39.4688 37.9998H34.4062C34.1825 37.9998 33.9679 37.9109 33.8096 37.7527C33.6514 37.5944 33.5625 37.3798 33.5625 37.1561V34.6248H31.875V37.1561C31.875 37.3798 31.7861 37.5944 31.6279 37.7527C31.4696 37.9109 31.255 37.9998 31.0312 37.9998H15.8438C15.62 37.9998 15.4054 37.9109 15.2471 37.7527C15.0889 37.5944 15 37.3798 15 37.1561V27.8748C15.0001 27.6978 15.0559 27.5253 15.1595 27.3818C15.2631 27.2382 15.4092 27.1309 15.5771 27.0749L25.125 23.8923V18.5936C25.125 18.437 25.1686 18.2835 25.2508 18.1503C25.3331 18.0171 25.4508 17.9094 25.5907 17.8392L39.0907 11.0892C39.2195 11.0248 39.3626 10.9944 39.5065 11.0009C39.6503 11.0074 39.7901 11.0506 39.9126 11.1264ZM25.125 25.6709L16.6875 28.4823V36.3123H25.125V25.6709ZM26.8125 36.3123H30.1875V33.7811C30.1875 33.5573 30.2764 33.3427 30.4346 33.1844C30.5929 33.0262 30.8075 32.9373 31.0312 32.9373H34.4062C34.63 32.9373 34.8446 33.0262 35.0029 33.1844C35.1611 33.3427 35.25 33.5573 35.25 33.7811V36.3123H38.625V13.2087L26.8125 19.115V36.3123Z" fill="white"/>
<path d="M18.375 29.5625H20.0625V31.25H18.375V29.5625ZM21.75 29.5625H23.4375V31.25H21.75V29.5625ZM18.375 32.9375H20.0625V34.625H18.375V32.9375ZM21.75 32.9375H23.4375V34.625H21.75V32.9375ZM28.5 26.1875H30.1875V27.875H28.5V26.1875ZM31.875 26.1875H33.5625V27.875H31.875V26.1875ZM28.5 29.5625H30.1875V31.25H28.5V29.5625ZM31.875 29.5625H33.5625V31.25H31.875V29.5625ZM35.25 26.1875H36.9375V27.875H35.25V26.1875ZM35.25 29.5625H36.9375V31.25H35.25V29.5625ZM28.5 22.8125H30.1875V24.5H28.5V22.8125ZM31.875 22.8125H33.5625V24.5H31.875V22.8125ZM35.25 22.8125H36.9375V24.5H35.25V22.8125ZM28.5 19.4375H30.1875V21.125H28.5V19.4375ZM31.875 19.4375H33.5625V21.125H31.875V19.4375ZM35.25 19.4375H36.9375V21.125H35.25V19.4375ZM35.25 16.0625H36.9375V17.75H35.25V16.0625Z" fill="white"/>
<defs>
<filter id="filter0_d_4066_22964" x="0.5" y="0.5" width="56" height="56" filterUnits="userSpaceOnUse" color-interpolation-filters="sRGB">
<feFlood flood-opacity="0" result="BackgroundImageFix"/>
<feColorMatrix in="SourceAlpha" type="matrix" values="0 0 0 0 0 0 0 0 0 0 0 0 0 0 0 0 0 0 127 0" result="hardAlpha"/>
<feOffset dy="3.5"/>
<feGaussianBlur stdDeviation="2.75"/>
<feColorMatrix type="matrix" values="0 0 0 0 0 0 0 0 0 0 0 0 0 0 0 0 0 0 0.02 0"/>
<feBlend mode="normal" in2="BackgroundImageFix" result="effect1_dropShadow_4066_22964"/>
<feBlend mode="normal" in="SourceGraphic" in2="effect1_dropShadow_4066_22964" result="shape"/>
</filter>
</defs>
</svg>
