<svg width="57" height="57" viewBox="0 0 57 57" fill="none" xmlns="http://www.w3.org/2000/svg">
<g filter="url(#filter0_d_4066_79471)">
<path d="M6 10.5C6 6.08172 9.58172 2.5 14 2.5H43C47.4183 2.5 51 6.08172 51 10.5V39.5C51 43.9183 47.4183 47.5 43 47.5H14C9.58172 47.5 6 43.9183 6 39.5V10.5Z" fill="#6D428F"/>
</g>
<path d="M28.5 24.5C29.8427 24.5 31.1303 23.9666 32.0797 23.0172C33.0291 22.0678 33.5625 20.7802 33.5625 19.4375C33.5625 18.0948 33.0291 16.8072 32.0797 15.8578C31.1303 14.9084 29.8427 14.375 28.5 14.375C27.1573 14.375 25.8697 14.9084 24.9203 15.8578C23.9709 16.8072 23.4375 18.0948 23.4375 19.4375C23.4375 20.7802 23.9709 22.0678 24.9203 23.0172C25.8697 23.9666 27.1573 24.5 28.5 24.5ZM31.875 19.4375C31.875 20.3326 31.5194 21.1911 30.8865 21.824C30.2535 22.4569 29.3951 22.8125 28.5 22.8125C27.6049 22.8125 26.7464 22.4569 26.1135 21.824C25.4806 21.1911 25.125 20.3326 25.125 19.4375C25.125 18.5424 25.4806 17.6839 26.1135 17.051C26.7464 16.4181 27.6049 16.0625 28.5 16.0625C29.3951 16.0625 30.2535 16.4181 30.8865 17.051C31.5194 17.6839 31.875 18.5424 31.875 19.4375ZM38.625 32.9375C38.625 34.625 36.9375 34.625 36.9375 34.625H20.0625C20.0625 34.625 18.375 34.625 18.375 32.9375C18.375 31.25 20.0625 26.1875 28.5 26.1875C36.9375 26.1875 38.625 31.25 38.625 32.9375ZM36.9375 32.9307C36.9358 32.5156 36.6776 31.2669 35.5335 30.1227C34.4333 29.0225 32.3627 27.875 28.5 27.875C24.6356 27.875 22.5668 29.0225 21.4665 30.1227C20.3224 31.2669 20.0659 32.5156 20.0625 32.9307H36.9375Z" fill="white"/>
<defs>
<filter id="filter0_d_4066_79471" x="0.5" y="0.5" width="56" height="56" filterUnits="userSpaceOnUse" color-interpolation-filters="sRGB">
<feFlood flood-opacity="0" result="BackgroundImageFix"/>
<feColorMatrix in="SourceAlpha" type="matrix" values="0 0 0 0 0 0 0 0 0 0 0 0 0 0 0 0 0 0 127 0" result="hardAlpha"/>
<feOffset dy="3.5"/>
<feGaussianBlur stdDeviation="2.75"/>
<feColorMatrix type="matrix" values="0 0 0 0 0 0 0 0 0 0 0 0 0 0 0 0 0 0 0.02 0"/>
<feBlend mode="normal" in2="BackgroundImageFix" result="effect1_dropShadow_4066_79471"/>
<feBlend mode="normal" in="SourceGraphic" in2="effect1_dropShadow_4066_79471" result="shape"/>
</filter>
</defs>
</svg>
