<svg width="21" height="21" viewBox="0 0 21 21" fill="none" xmlns="http://www.w3.org/2000/svg">
<path fill-rule="evenodd" clip-rule="evenodd" d="M0 10.5C0 7.8008 1.07224 5.21219 2.98084 3.30359C4.88944 1.39499 7.47805 0.322754 10.1772 0.322754C12.8764 0.322754 15.465 1.39499 17.3736 3.30359C19.2822 5.21219 20.3544 7.8008 20.3544 10.5C20.3544 13.1991 19.2822 15.7878 17.3736 17.6963C15.465 19.6049 12.8764 20.6772 10.1772 20.6772C7.47805 20.6772 4.88944 19.6049 2.98084 17.6963C1.07224 15.7878 0 13.1991 0 10.5ZM10.1772 1.59491C8.50024 1.595 6.85737 2.06861 5.43769 2.96123C4.01801 3.85386 2.87924 5.12921 2.15244 6.64051C1.42563 8.1518 1.14034 9.83761 1.3294 11.5039C1.51845 13.1702 2.17418 14.7492 3.22109 16.0593C4.12432 14.6039 6.11269 13.0443 10.1772 13.0443C14.2417 13.0443 16.2288 14.6027 17.1333 16.0593C18.1803 14.7492 18.836 13.1702 19.025 11.5039C19.2141 9.83761 18.9288 8.1518 18.202 6.64051C17.4752 5.12921 16.3364 3.85386 14.9167 2.96123C13.4971 2.06861 11.8542 1.595 10.1772 1.59491Z" fill="#6C737F"/>
</svg>
