<svg width="21" height="20" viewBox="0 0 21 20" fill="none" xmlns="http://www.w3.org/2000/svg">
<path fill-rule="evenodd" clip-rule="evenodd" d="M10.4499 3.75C9.09909 3.75052 7.78481 4.18866 6.70391 4.9988C5.623 5.80894 4.83366 6.94746 4.4541 8.24385C4.07455 9.54023 4.12521 10.9247 4.59851 12.1899C5.0718 13.455 5.94225 14.5328 7.07948 15.2618C8.2167 15.9908 9.55949 16.3317 10.9067 16.2335C12.254 16.1352 13.5331 15.6032 14.5526 14.717C15.5721 13.8308 16.277 12.6382 16.5618 11.3177C16.8466 9.9973 16.696 8.62013 16.1324 7.3925C16.0711 7.24324 16.0698 7.07605 16.129 6.9259C16.1881 6.77576 16.303 6.6543 16.4496 6.58696C16.5963 6.51961 16.7633 6.51159 16.9157 6.56458C17.0681 6.61757 17.1942 6.72746 17.2674 6.87125C17.9436 8.34449 18.1244 9.99716 17.7825 11.5817C17.4406 13.1663 16.5946 14.5974 15.3711 15.6608C14.1475 16.7242 12.6124 17.3625 10.9957 17.4802C9.37896 17.5979 7.76759 17.1886 6.40298 16.3136C5.03837 15.4387 3.99397 14.1452 3.42622 12.6268C2.85848 11.1085 2.79794 9.44703 3.25369 7.89139C3.70944 6.33575 4.65693 4.96964 5.95425 3.99769C7.25157 3.02574 8.82887 2.50028 10.4499 2.5V3.75Z" fill="black"/>
<path d="M10.4502 5.58285V0.667852C10.4502 0.608472 10.4672 0.550328 10.499 0.500228C10.5309 0.450128 10.5764 0.410146 10.6302 0.384963C10.6839 0.359781 10.7438 0.350441 10.8027 0.358036C10.8616 0.365632 10.9171 0.389849 10.9627 0.427852L13.9127 2.88535C14.0627 3.01035 14.0627 3.24035 13.9127 3.36535L10.9627 5.82285C10.9171 5.86086 10.8616 5.88507 10.8027 5.89267C10.7438 5.90026 10.6839 5.89092 10.6302 5.86574C10.5764 5.84056 10.5309 5.80058 10.499 5.75048C10.4672 5.70038 10.4502 5.64223 10.4502 5.58285Z" fill="black"/>
</svg>
