<svg width="56" height="57" viewBox="0 0 56 57" fill="none" xmlns="http://www.w3.org/2000/svg">
<g filter="url(#filter0_d_4066_79844)">
<path d="M5.5 10.5C5.5 6.08172 9.08172 2.5 13.5 2.5H42.5C46.9183 2.5 50.5 6.08172 50.5 10.5V39.5C50.5 43.9183 46.9183 47.5 42.5 47.5H13.5C9.08172 47.5 5.5 43.9183 5.5 39.5V10.5Z" fill="#D92D20"/>
</g>
<g clip-path="url(#clip0_4066_79844)">
<path d="M28 36.3125C24.8671 36.3125 21.8626 35.068 19.6473 32.8527C17.432 30.6374 16.1875 27.6329 16.1875 24.5C16.1875 21.3671 17.432 18.3626 19.6473 16.1473C21.8626 13.932 24.8671 12.6875 28 12.6875C31.1329 12.6875 34.1374 13.932 36.3527 16.1473C38.568 18.3626 39.8125 21.3671 39.8125 24.5C39.8125 27.6329 38.568 30.6374 36.3527 32.8527C34.1374 35.068 31.1329 36.3125 28 36.3125ZM28 38C31.5804 38 35.0142 36.5777 37.5459 34.0459C40.0777 31.5142 41.5 28.0804 41.5 24.5C41.5 20.9196 40.0777 17.4858 37.5459 14.9541C35.0142 12.4223 31.5804 11 28 11C24.4196 11 20.9858 12.4223 18.4541 14.9541C15.9223 17.4858 14.5 20.9196 14.5 24.5C14.5 28.0804 15.9223 31.5142 18.4541 34.0459C20.9858 36.5777 24.4196 38 28 38Z" fill="white"/>
<path d="M22.3402 18.8402C22.4185 18.7616 22.5117 18.6993 22.6142 18.6567C22.7167 18.6142 22.8266 18.5923 22.9375 18.5923C23.0485 18.5923 23.1584 18.6142 23.2609 18.6567C23.3634 18.6993 23.4565 18.7616 23.5349 18.8402L28 23.307L32.4652 18.8402C32.5436 18.7617 32.6367 18.6995 32.7392 18.657C32.8417 18.6146 32.9516 18.5927 33.0625 18.5927C33.1735 18.5927 33.2833 18.6146 33.3858 18.657C33.4883 18.6995 33.5815 18.7617 33.6599 18.8402C33.7384 18.9186 33.8006 19.0117 33.843 19.1142C33.8855 19.2167 33.9074 19.3266 33.9074 19.4375C33.9074 19.5485 33.8855 19.6583 33.843 19.7608C33.8006 19.8633 33.7384 19.9565 33.6599 20.0349L29.1931 24.5L33.6599 28.9652C33.7384 29.0436 33.8006 29.1367 33.843 29.2392C33.8855 29.3417 33.9074 29.4516 33.9074 29.5625C33.9074 29.6735 33.8855 29.7833 33.843 29.8858C33.8006 29.9883 33.7384 30.0815 33.6599 30.1599C33.5815 30.2384 33.4883 30.3006 33.3858 30.343C33.2833 30.3855 33.1735 30.4074 33.0625 30.4074C32.9516 30.4074 32.8417 30.3855 32.7392 30.343C32.6367 30.3006 32.5436 30.2384 32.4652 30.1599L28 25.6931L23.5349 30.1599C23.4565 30.2384 23.3633 30.3006 23.2608 30.343C23.1583 30.3855 23.0485 30.4074 22.9375 30.4074C22.8266 30.4074 22.7167 30.3855 22.6142 30.343C22.5117 30.3006 22.4186 30.2384 22.3402 30.1599C22.2617 30.0815 22.1995 29.9883 22.157 29.8858C22.1146 29.7833 22.0927 29.6735 22.0927 29.5625C22.0927 29.4516 22.1146 29.3417 22.157 29.2392C22.1995 29.1367 22.2617 29.0436 22.3402 28.9652L26.807 24.5L22.3402 20.0349C22.2616 19.9565 22.1993 19.8634 22.1567 19.7609C22.1142 19.6584 22.0923 19.5485 22.0923 19.4375C22.0923 19.3266 22.1142 19.2167 22.1567 19.1142C22.1993 19.0117 22.2616 18.9185 22.3402 18.8402Z" fill="white"/>
</g>
<defs>
<filter id="filter0_d_4066_79844" x="-4.76837e-07" y="0.5" width="56" height="56" filterUnits="userSpaceOnUse" color-interpolation-filters="sRGB">
<feFlood flood-opacity="0" result="BackgroundImageFix"/>
<feColorMatrix in="SourceAlpha" type="matrix" values="0 0 0 0 0 0 0 0 0 0 0 0 0 0 0 0 0 0 127 0" result="hardAlpha"/>
<feOffset dy="3.5"/>
<feGaussianBlur stdDeviation="2.75"/>
<feColorMatrix type="matrix" values="0 0 0 0 0 0 0 0 0 0 0 0 0 0 0 0 0 0 0.02 0"/>
<feBlend mode="normal" in2="BackgroundImageFix" result="effect1_dropShadow_4066_79844"/>
<feBlend mode="normal" in="SourceGraphic" in2="effect1_dropShadow_4066_79844" result="shape"/>
</filter>
<clipPath id="clip0_4066_79844">
<rect width="27" height="27" fill="white" transform="translate(14.5 11)"/>
</clipPath>
</defs>
</svg>
