<svg width="56" height="57" viewBox="0 0 56 57" fill="none" xmlns="http://www.w3.org/2000/svg">
<g filter="url(#filter0_d_4066_79775)">
<path d="M5.5 10.5C5.5 6.08172 9.08172 2.5 13.5 2.5H42.5C46.9183 2.5 50.5 6.08172 50.5 10.5V39.5C50.5 43.9183 46.9183 47.5 42.5 47.5H13.5C9.08172 47.5 5.5 43.9183 5.5 39.5V10.5Z" fill="#DBA102"/>
</g>
<g clip-path="url(#clip0_4066_79775)">
<path d="M33.9636 22.8124H40.5989C40.6791 22.8124 40.7576 22.8353 40.8252 22.8783C40.8928 22.9213 40.9468 22.9828 40.9808 23.0553C41.0148 23.1279 41.0274 23.2087 41.0171 23.2882C41.0069 23.3677 40.9742 23.4427 40.9229 23.5043L37.6053 27.4868C37.5657 27.5342 37.5161 27.5724 37.4601 27.5986C37.4042 27.6249 37.3431 27.6384 37.2813 27.6384C37.2195 27.6384 37.1584 27.6249 37.1024 27.5986C37.0464 27.5724 36.9969 27.5342 36.9573 27.4868L33.6396 23.5043C33.5883 23.4427 33.5557 23.3677 33.5454 23.2882C33.5351 23.2087 33.5478 23.1279 33.5817 23.0553C33.6157 22.9828 33.6697 22.9213 33.7374 22.8783C33.805 22.8353 33.8835 22.8124 33.9636 22.8124ZM15.4011 26.1874H22.0364C22.1166 26.1874 22.1951 26.1645 22.2627 26.1215C22.3303 26.0784 22.3843 26.017 22.4183 25.9444C22.4523 25.8718 22.4649 25.7911 22.4546 25.7115C22.4444 25.632 22.4117 25.5571 22.3604 25.4955L19.0428 21.513C19.0032 21.4655 18.9536 21.4273 18.8976 21.4011C18.8417 21.3749 18.7806 21.3613 18.7188 21.3613C18.657 21.3613 18.5959 21.3749 18.5399 21.4011C18.4839 21.4273 18.4344 21.4655 18.3948 21.513L15.0771 25.4955C15.0258 25.5571 14.9932 25.632 14.9829 25.7115C14.9726 25.7911 14.9853 25.8718 15.0192 25.9444C15.0532 26.017 15.1072 26.0784 15.1749 26.1215C15.2425 26.1645 15.321 26.1874 15.4011 26.1874Z" fill="white"/>
<path fill-rule="evenodd" clip-rule="evenodd" d="M28 16.0627C25.381 16.0627 23.0388 17.2557 21.4913 19.1306C21.4222 19.2201 21.3358 19.2949 21.2373 19.3504C21.1387 19.4059 21.03 19.441 20.9176 19.4536C20.8051 19.4663 20.6913 19.4562 20.5829 19.4239C20.4745 19.3917 20.3736 19.338 20.2864 19.266C20.1991 19.194 20.1272 19.1053 20.075 19.0049C20.0227 18.9046 19.9912 18.7948 19.9822 18.682C19.9732 18.5693 19.987 18.4559 20.0228 18.3485C20.0585 18.2412 20.1155 18.1422 20.1903 18.0573C21.4258 16.5614 23.0651 15.4518 24.913 14.8606C26.7609 14.2694 28.7398 14.2214 30.6142 14.7223C32.4887 15.2232 34.1798 16.252 35.4865 17.6862C36.7931 19.1204 37.6603 20.8998 37.9849 22.8127H36.2688C35.8792 20.9072 34.8435 19.1947 33.3368 17.9647C31.8301 16.7348 29.9449 16.0629 28 16.0627ZM19.7313 26.1877C20.0507 27.748 20.8051 29.1861 21.9073 30.3358C23.0094 31.4855 24.4143 32.3 25.9598 32.685C27.5052 33.0701 29.128 33.0101 30.6408 32.5119C32.1535 32.0138 33.4945 31.0978 34.5087 29.8698C34.5778 29.7802 34.6642 29.7055 34.7628 29.65C34.8613 29.5945 34.9701 29.5594 35.0825 29.5467C35.1949 29.5341 35.3087 29.5442 35.4171 29.5764C35.5255 29.6086 35.6264 29.6623 35.7136 29.7343C35.8009 29.8063 35.8728 29.8951 35.9251 29.9954C35.9773 30.0958 36.0089 30.2056 36.0178 30.3183C36.0268 30.4311 36.013 30.5445 35.9773 30.6518C35.9415 30.7591 35.8846 30.8582 35.8098 30.9431C34.5742 32.439 32.935 33.5485 31.087 34.1398C29.2391 34.731 27.2602 34.779 25.3858 34.2781C23.5113 33.7772 21.8202 32.7484 20.5136 31.3142C19.2069 29.8799 18.3397 28.1005 18.0151 26.1877H19.7313Z" fill="white"/>
</g>
<defs>
<filter id="filter0_d_4066_79775" x="-4.76837e-07" y="0.5" width="56" height="56" filterUnits="userSpaceOnUse" color-interpolation-filters="sRGB">
<feFlood flood-opacity="0" result="BackgroundImageFix"/>
<feColorMatrix in="SourceAlpha" type="matrix" values="0 0 0 0 0 0 0 0 0 0 0 0 0 0 0 0 0 0 127 0" result="hardAlpha"/>
<feOffset dy="3.5"/>
<feGaussianBlur stdDeviation="2.75"/>
<feColorMatrix type="matrix" values="0 0 0 0 0 0 0 0 0 0 0 0 0 0 0 0 0 0 0.02 0"/>
<feBlend mode="normal" in2="BackgroundImageFix" result="effect1_dropShadow_4066_79775"/>
<feBlend mode="normal" in="SourceGraphic" in2="effect1_dropShadow_4066_79775" result="shape"/>
</filter>
<clipPath id="clip0_4066_79775">
<rect width="27" height="27" fill="white" transform="translate(14.5 11)"/>
</clipPath>
</defs>
</svg>
