<svg width="32" height="32" viewBox="0 0 32 32" fill="none" xmlns="http://www.w3.org/2000/svg">
<path d="M26 16C26 16 22.25 9.125 16 9.125C9.75 9.125 6 16 6 16C6 16 9.75 22.875 16 22.875C22.25 22.875 26 16 26 16ZM7.46625 16C8.07064 15.0814 8.7658 14.2259 9.54125 13.4462C11.15 11.835 13.35 10.375 16 10.375C18.65 10.375 20.8488 11.835 22.46 13.4462C23.2354 14.2259 23.9306 15.0814 24.535 16C24.4625 16.1087 24.3825 16.2288 24.2913 16.36C23.8725 16.96 23.2537 17.76 22.46 18.5538C20.8488 20.165 18.6488 21.625 16 21.625C13.35 21.625 11.1512 20.165 9.54 18.5538C8.76456 17.7741 8.0694 16.9186 7.465 16H7.46625Z" fill="black"/>
<path d="M16 12.875C15.1712 12.875 14.3763 13.2042 13.7903 13.7903C13.2042 14.3763 12.875 15.1712 12.875 16C12.875 16.8288 13.2042 17.6237 13.7903 18.2097C14.3763 18.7958 15.1712 19.125 16 19.125C16.8288 19.125 17.6237 18.7958 18.2097 18.2097C18.7958 17.6237 19.125 16.8288 19.125 16C19.125 15.1712 18.7958 14.3763 18.2097 13.7903C17.6237 13.2042 16.8288 12.875 16 12.875ZM11.625 16C11.625 14.8397 12.0859 13.7269 12.9064 12.9064C13.7269 12.0859 14.8397 11.625 16 11.625C17.1603 11.625 18.2731 12.0859 19.0936 12.9064C19.9141 13.7269 20.375 14.8397 20.375 16C20.375 17.1603 19.9141 18.2731 19.0936 19.0936C18.2731 19.9141 17.1603 20.375 16 20.375C14.8397 20.375 13.7269 19.9141 12.9064 19.0936C12.0859 18.2731 11.625 17.1603 11.625 16Z" fill="black"/>
</svg>
